<svg xmlns="http://www.w3.org/2000/svg" width="294" height="335" viewBox="0 0 294 335">
  <g id="humaaans_sitting-8" data-name="humaaans/sitting-8" transform="translate(-9 -48)">
    <g id="A-Human_Sitting" data-name="A-Human/Sitting" transform="translate(356 24) rotate(180)">
      <g id="Head_Front_Short-2" data-name="Head/Front/Short-2" transform="translate(82)">
        <g id="Head" transform="translate(54 -31)">
          <path id="Path_1" data-name="Path 1" d="M8.262-34.49C3.654-29.081.536-22.453,1.057-15.026c1.5,21.4,31.292,16.693,37.087,5.892s5.106-38.2-2.383-40.13c-2.987-.77-9.349,1.116-15.825,5.019L24-73H0Z" fill="#915b3c" fill-rule="evenodd"/>
        </g>
        <path id="Hair" d="M60.418-70.308c-3.012,13.4-11.594,22.536-10.283,28.526a9.085,9.085,0,0,0,6.986,7.45q2.935,11.875,18.934,10.1c16-1.773,25.763-8.417,21.547-23.037-3.876,0-8.556,1.4-15.027-1q-3.08-1.143-4.406-7.09H75.246q-4.257,7.057-8.395,5.187t-1.881-9.087l-1.44-11.049Z" fill="#191847" fill-rule="evenodd"/>
      </g>
      <g id="Bottom_Sitting_Baggy-Pants" data-name="Bottom/Sitting/Baggy-Pants" transform="translate(0 -187)">
        <g id="Objects_Seat_Cube-2" data-name="Objects/Seat/Cube-2" transform="translate(10 -42)">
          <path id="Seat" d="M59,0H174a16,16,0,0,0,16-16v-92a16,16,0,0,0-16-16H59a16,16,0,0,0-16,16v92A16,16,0,0,0,59,0ZM75-28a4,4,0,0,1-4-4V-92a4,4,0,0,1,4-4h83a4,4,0,0,1,4,4v60a4,4,0,0,1-4,4Z" fill="#c5cfd6" fill-rule="evenodd"/>
        </g>
        <path id="LegLower" d="M299.159-161q-29.574,36.114-40.021,53.546c-11.925,19.9-21.685,37.606-24.765,44.37-7.345,16.129,16.909,23.682,22.4,16.159Q269.233-64.006,310-154.417Z" fill="#b28b67" fill-rule="evenodd"/>
        <path id="LegLower-2" data-name="LegLower" d="M258.758-154,222.065-61.637c-7.848,16.837,30.051,27.9,35.818,20.069C270.977-59.357,302.1-129.534,306-134.834Z" fill="#2f3676" fill-rule="evenodd"/>
        <g id="Lower-Leg" transform="matrix(0.777, -0.629, 0.629, 0.777, 244.113, -25.238)">
          <path id="LegLower-3" data-name="LegLower" d="M4.81-137.955C3.8-125.354,1.934-81.734,3.8-61.543c.538,5.8,1.1,11.411,1.675,16.674,1.7,15.641,30.7,15.147,28.4.287-5.736-37.007-15.831-88.87-16.555-93.351C16.307-144.215,5.443-145.874,4.81-137.955Z" fill="#915b3c" fill-rule="evenodd"/>
        </g>
        <g id="Accessories_Shoe_Flat-Sneaker" data-name="Accessories/Shoe/Flat-Sneaker" transform="matrix(0.866, -0.5, 0.5, 0.866, 173.086, -107.429)">
          <path id="shoe" d="M2.678-25.4A21.472,21.472,0,0,1,1-32.106,50.177,50.177,0,0,1,1.9-40H58.3q2.2,7.268-2.538,7.848T47.9-31.106L21.68-19.419a1,1,0,0,1-1.321-.506l-.011-.026-1.685-4.088a17.983,17.983,0,0,0-7.127-2.046,16.139,16.139,0,0,0-6.152,1.8h0a2,2,0,0,1-2.652-.985Q2.7-25.335,2.678-25.4Z" fill="#3d3d3d" fill-rule="evenodd"/>
        </g>
        <g id="Accessories_Shoe_Flat-Sneaker-2" data-name="Accessories/Shoe/Flat-Sneaker" transform="translate(288 -132)">
          <path id="shoe-2" data-name="shoe" d="M2.678-25.4A21.472,21.472,0,0,1,1-32.106,50.177,50.177,0,0,1,1.9-40H58.3q2.2,7.268-2.538,7.848T47.9-31.106L21.68-19.419a1,1,0,0,1-1.32-.506l-.011-.026-1.685-4.088a17.983,17.983,0,0,0-7.127-2.046,16.139,16.139,0,0,0-6.152,1.8h0a2,2,0,0,1-2.652-.985Q2.7-25.335,2.678-25.4Z" fill="#3d3d3d" fill-rule="evenodd"/>
        </g>
        <path id="Leg-and-Butt" d="M208.862-66.25Q163.117-58.8,147.581-56.058C118.057-50.852,109.448-34.965,114.538-.3h54.4q10.8-3.118,90.234-38.569c9.528-4.73,7.753-18.676,6.012-23.27q-.106-.281-48.188-82.571l-44.5,28.348L208.946-69.59Q210.389-66.682,208.862-66.25Z" fill="#5c63ab" fill-rule="evenodd"/>
      </g>
      <g id="Body_Hoodie" data-name="Body/Hoodie" transform="translate(22 -82)">
        <path id="Skin" d="M190.781-92.212l31.9-23.424a85.87,85.87,0,0,0,21.685-8.714c1.371-1.249,3.028-3.779-2.659-3.342s-11.687.642-12.472-1.3,2.657-4.259,1.071-6.876q-1.587-2.617-14.987,13.124l-31.587,13.1ZM68.308-93.02l20.9-.082q-19.355-62.481-20.9-66.3c-2.314-5.734,2.583-14.468,4.677-19.161-6.82-3.052-6.093,8.25-14.7,4.248-7.853-3.654-13.826-10.273-22.9-4.675-1.115.688-2.338,3.279.616,5.3,7.358,5.045,17.961,13.875,19.393,16.782Q58.328-150.964,68.308-93.02Z" fill="#915b3c" fill-rule="evenodd"/>
        <path id="Coat-Back" d="M122.731-9.58l8.485,2.231C165.593-32.163,183.361-84.056,225-108.727l-8.407-12.514C147.888-118.771,125.382-55.547,122.731-9.58Z" transform="translate(6.265 14.909) rotate(-5)" fill="#e87613" fill-rule="evenodd"/>
        <path id="Shirt" d="M90-114h76.511c3.5,0,2.838,5.048,2.332,7.6-5.832,29.4-28.6,61.092-28.6,102.943L118.172,0C99.918-29.358,93.6-65.5,90-114Z" fill="#dde3e9" fill-rule="evenodd"/>
        <path id="Coat-Front" d="M90.615-28.858A12.622,12.622,0,0,0,83-22.411C74.934-7.856,77.847.158,86.467,2.792S102.775,0,116.51,0a13.834,13.834,0,0,0,2.053-.14l6.909-.394Q155.205-101.305,141.872-135H81.652a205.387,205.387,0,0,0-10.243-21H55Q52.684-81.1,90.615-28.858Z" fill="#ff9b21" fill-rule="evenodd"/>
        <path id="Shade" d="M94.765-100.5Q97.606-124.267,104-135H81.652Q87.895-120.442,94.765-100.5Z" fill="rgba(0,0,0,0.1)" fill-rule="evenodd"/>
      </g>
    </g>
  </g>
</svg>
